<?xml version="1.0" standalone="no"?>
<!DOCTYPE svg PUBLIC "-//W3C//DTD SVG 20010904//EN"
 "http://www.w3.org/TR/2001/REC-SVG-20010904/DTD/svg10.dtd">
<svg version="1.0" xmlns="http://www.w3.org/2000/svg"
 width="512.000000pt" height="512.000000pt" viewBox="0 0 512.000000 512.000000"
 preserveAspectRatio="xMidYMid meet">

<g transform="translate(0.000000,512.000000) scale(0.100000,-0.100000)"
fill="#000000" stroke="none">
<path d="M2430 4836 c-66 -16 -152 -50 -200 -79 -19 -12 -112 -97 -207 -189
-227 -222 -209 -214 -498 -221 -153 -4 -238 -10 -280 -21 -201 -53 -365 -205
-437 -403 -18 -50 -22 -90 -28 -298 -9 -316 0 -296 -233 -533 -152 -154 -179
-187 -210 -252 -79 -164 -87 -329 -26 -500 36 -97 69 -142 241 -317 222 -227
214 -209 221 -498 6 -246 14 -294 74 -415 52 -103 160 -211 263 -263 121 -60
169 -68 415 -74 289 -7 271 1 498 -221 106 -104 193 -180 227 -199 184 -103
397 -109 588 -17 68 33 98 58 252 209 98 96 195 183 220 196 42 22 60 24 275
30 159 5 249 12 290 23 201 54 365 205 437 403 18 50 22 90 28 298 9 315 1
296 228 528 102 105 180 194 199 227 105 186 105 434 0 620 -19 33 -97 122
-199 227 -222 226 -214 209 -221 498 -6 246 -15 295 -74 415 -52 103 -160 211
-263 263 -121 60 -169 68 -415 74 -289 7 -272 -1 -498 221 -180 176 -231 213
-347 252 -82 27 -242 35 -320 16z m259 -332 c42 -19 93 -63 225 -192 94 -92
192 -180 217 -195 25 -14 82 -38 125 -53 75 -26 92 -28 314 -33 266 -7 289
-13 369 -92 79 -80 85 -103 92 -369 5 -222 7 -239 33 -314 15 -43 39 -100 53
-125 15 -25 103 -123 195 -217 195 -198 221 -241 221 -354 0 -113 -26 -156
-221 -354 -92 -94 -180 -192 -195 -217 -14 -25 -38 -82 -53 -125 -26 -75 -28
-92 -33 -314 -7 -266 -13 -289 -92 -369 -79 -79 -103 -85 -369 -92 -259 -7
-290 -13 -415 -77 -56 -29 -104 -70 -241 -204 -198 -194 -242 -222 -354 -222
-112 0 -156 28 -354 222 -137 134 -185 175 -241 204 -125 64 -156 70 -415 77
-266 7 -290 13 -369 92 -79 79 -85 103 -92 369 -7 259 -13 290 -77 415 -29 56
-70 104 -204 241 -195 198 -221 241 -221 354 0 114 26 155 226 359 140 143
178 188 203 241 61 125 66 155 73 410 7 266 13 290 92 369 80 79 103 85 369
92 222 5 239 7 314 33 123 42 159 68 341 247 96 94 189 176 213 188 90 46 177
47 271 5z"/>
<path d="M3140 3129 c-14 -5 -197 -182 -407 -392 l-382 -381 -174 171 c-145
144 -179 172 -210 178 -130 25 -217 -62 -192 -192 6 -32 39 -70 223 -257 260
-262 278 -276 344 -276 27 0 61 6 76 14 33 18 905 892 921 923 17 33 13 104
-7 143 -32 61 -126 95 -192 69z"/>
</g>
</svg>
